<?xml version="1.0" encoding="UTF-8"?>
<!DOCTYPE svg PUBLIC "-//W3C//DTD SVG 1.1//EN" "http://www.w3.org/Graphics/SVG/1.1/DTD/svg11.dtd">
<!-- Creator: CorelDRAW (Evaluation Version) -->
<svg xmlns="http://www.w3.org/2000/svg" xml:space="preserve" width="11.6929in" height="8.26772in" version="1.1" style="shape-rendering:geometricPrecision; text-rendering:geometricPrecision; image-rendering:optimizeQuality; fill-rule:evenodd; clip-rule:evenodd"
viewBox="0 0 11692.91 8267.72"
 xmlns:xlink="http://www.w3.org/1999/xlink"
 xmlns:xodm="http://www.corel.com/coreldraw/odm/2003">
 <defs>
  <style type="text/css">
   <![CDATA[
    .str0 {stroke:#274B95;stroke-width:6.94;stroke-miterlimit:22.9256}
    .fil3 {fill:white}
    .fil2 {fill:#274B95}
    .fil4 {fill:white;fill-rule:nonzero}
    .fil0 {fill:#43403E;fill-rule:nonzero}
    .fil1 {fill:url(#id0)}
   ]]>
  </style>
  <linearGradient id="id0" gradientUnits="userSpaceOnUse" x1="3517.19" y1="5731.09" x2="3517.19" y2="2109.49">
   <stop offset="0" style="stop-opacity:1; stop-color:#274B95"/>
   <stop offset="0.0117647" style="stop-opacity:1; stop-color:#274B95"/>
   <stop offset="0.0196078" style="stop-opacity:1; stop-color:#274B95"/>
   <stop offset="0.0313725" style="stop-opacity:1; stop-color:#274B95"/>
   <stop offset="0.0392157" style="stop-opacity:1; stop-color:#274B95"/>
   <stop offset="0.0509804" style="stop-opacity:1; stop-color:#274B95"/>
   <stop offset="0.0588235" style="stop-opacity:1; stop-color:#274B95"/>
   <stop offset="0.0705882" style="stop-opacity:1; stop-color:#274B95"/>
   <stop offset="0.0784314" style="stop-opacity:1; stop-color:#274B95"/>
   <stop offset="0.0901961" style="stop-opacity:1; stop-color:#274B95"/>
   <stop offset="0.101961" style="stop-opacity:1; stop-color:#274B95"/>
   <stop offset="0.109804" style="stop-opacity:1; stop-color:#274B95"/>
   <stop offset="0.121569" style="stop-opacity:1; stop-color:#274B95"/>
   <stop offset="0.129412" style="stop-opacity:1; stop-color:#274B95"/>
   <stop offset="0.141176" style="stop-opacity:1; stop-color:#274B95"/>
   <stop offset="0.14902" style="stop-opacity:1; stop-color:#274B95"/>
   <stop offset="0.160784" style="stop-opacity:1; stop-color:#274B95"/>
   <stop offset="0.168627" style="stop-opacity:1; stop-color:#274B95"/>
   <stop offset="0.180392" style="stop-opacity:1; stop-color:#274B95"/>
   <stop offset="0.188235" style="stop-opacity:1; stop-color:#274B95"/>
   <stop offset="0.2" style="stop-opacity:1; stop-color:#274B95"/>
   <stop offset="0.211765" style="stop-opacity:1; stop-color:#274B95"/>
   <stop offset="0.219608" style="stop-opacity:1; stop-color:#274B95"/>
   <stop offset="0.231373" style="stop-opacity:1; stop-color:#274B95"/>
   <stop offset="0.239216" style="stop-opacity:1; stop-color:#274B95"/>
   <stop offset="0.25098" style="stop-opacity:1; stop-color:#274B95"/>
   <stop offset="0.258824" style="stop-opacity:1; stop-color:#274B95"/>
   <stop offset="0.270588" style="stop-opacity:1; stop-color:#274B95"/>
   <stop offset="0.278431" style="stop-opacity:1; stop-color:#274B95"/>
   <stop offset="0.290196" style="stop-opacity:1; stop-color:#274B95"/>
   <stop offset="0.301961" style="stop-opacity:1; stop-color:#274B95"/>
   <stop offset="0.309804" style="stop-opacity:1; stop-color:#274B95"/>
   <stop offset="0.321569" style="stop-opacity:1; stop-color:#274B95"/>
   <stop offset="0.329412" style="stop-opacity:1; stop-color:#274B95"/>
   <stop offset="0.341176" style="stop-opacity:1; stop-color:#274B95"/>
   <stop offset="0.34902" style="stop-opacity:1; stop-color:#274B95"/>
   <stop offset="0.360784" style="stop-opacity:1; stop-color:#274B95"/>
   <stop offset="0.368627" style="stop-opacity:1; stop-color:#274B95"/>
   <stop offset="0.380392" style="stop-opacity:1; stop-color:#274B95"/>
   <stop offset="0.388235" style="stop-opacity:1; stop-color:#274B95"/>
   <stop offset="0.4" style="stop-opacity:1; stop-color:#274B95"/>
   <stop offset="0.411765" style="stop-opacity:1; stop-color:#274B95"/>
   <stop offset="0.419608" style="stop-opacity:1; stop-color:#274B95"/>
   <stop offset="0.431373" style="stop-opacity:1; stop-color:#274B95"/>
   <stop offset="0.439216" style="stop-opacity:1; stop-color:#274B95"/>
   <stop offset="0.45098" style="stop-opacity:1; stop-color:#274B95"/>
   <stop offset="0.458824" style="stop-opacity:1; stop-color:#274B95"/>
   <stop offset="0.470588" style="stop-opacity:1; stop-color:#274B95"/>
   <stop offset="0.478431" style="stop-opacity:1; stop-color:#274B95"/>
   <stop offset="0.490196" style="stop-opacity:1; stop-color:#274B95"/>
   <stop offset="0.501961" style="stop-opacity:1; stop-color:#274B95"/>
   <stop offset="0.509804" style="stop-opacity:1; stop-color:#274B95"/>
   <stop offset="0.521569" style="stop-opacity:1; stop-color:#274B95"/>
   <stop offset="0.529412" style="stop-opacity:1; stop-color:#274B95"/>
   <stop offset="0.541176" style="stop-opacity:1; stop-color:#274B95"/>
   <stop offset="0.54902" style="stop-opacity:1; stop-color:#274B95"/>
   <stop offset="0.560784" style="stop-opacity:1; stop-color:#274B95"/>
   <stop offset="0.568627" style="stop-opacity:1; stop-color:#274B95"/>
   <stop offset="0.580392" style="stop-opacity:1; stop-color:#274B95"/>
   <stop offset="0.588235" style="stop-opacity:1; stop-color:#274B95"/>
   <stop offset="0.6" style="stop-opacity:1; stop-color:#274B95"/>
   <stop offset="0.611765" style="stop-opacity:1; stop-color:#274B95"/>
   <stop offset="0.619608" style="stop-opacity:1; stop-color:#274B95"/>
   <stop offset="0.631373" style="stop-opacity:1; stop-color:#274B95"/>
   <stop offset="0.639216" style="stop-opacity:1; stop-color:#274B95"/>
   <stop offset="0.65098" style="stop-opacity:1; stop-color:#274B95"/>
   <stop offset="0.658824" style="stop-opacity:1; stop-color:#274B95"/>
   <stop offset="0.670588" style="stop-opacity:1; stop-color:#274B95"/>
   <stop offset="0.678431" style="stop-opacity:1; stop-color:#274B95"/>
   <stop offset="0.690196" style="stop-opacity:1; stop-color:#274B95"/>
   <stop offset="0.701961" style="stop-opacity:1; stop-color:#274B95"/>
   <stop offset="0.709804" style="stop-opacity:1; stop-color:#274B95"/>
   <stop offset="0.721569" style="stop-opacity:1; stop-color:#274B95"/>
   <stop offset="0.729412" style="stop-opacity:1; stop-color:#274B95"/>
   <stop offset="0.741176" style="stop-opacity:1; stop-color:#274B95"/>
   <stop offset="0.74902" style="stop-opacity:1; stop-color:#274B95"/>
   <stop offset="0.760784" style="stop-opacity:1; stop-color:#274B95"/>
   <stop offset="0.768627" style="stop-opacity:1; stop-color:#274B95"/>
   <stop offset="0.780392" style="stop-opacity:1; stop-color:#274B95"/>
   <stop offset="0.788235" style="stop-opacity:1; stop-color:#274B95"/>
   <stop offset="0.8" style="stop-opacity:1; stop-color:#274B95"/>
   <stop offset="0.811765" style="stop-opacity:1; stop-color:#274B95"/>
   <stop offset="0.819608" style="stop-opacity:1; stop-color:#274B95"/>
   <stop offset="0.831373" style="stop-opacity:1; stop-color:#274B95"/>
   <stop offset="0.839216" style="stop-opacity:1; stop-color:#274B95"/>
   <stop offset="0.85098" style="stop-opacity:1; stop-color:#274B95"/>
   <stop offset="0.858824" style="stop-opacity:1; stop-color:#274B95"/>
   <stop offset="0.870588" style="stop-opacity:1; stop-color:#274B95"/>
   <stop offset="0.878431" style="stop-opacity:1; stop-color:#274B95"/>
   <stop offset="0.890196" style="stop-opacity:1; stop-color:#274B95"/>
   <stop offset="0.901961" style="stop-opacity:1; stop-color:#274B95"/>
   <stop offset="0.909804" style="stop-opacity:1; stop-color:#274B95"/>
   <stop offset="0.921569" style="stop-opacity:1; stop-color:#274B95"/>
   <stop offset="0.929412" style="stop-opacity:1; stop-color:#274B95"/>
   <stop offset="0.941176" style="stop-opacity:1; stop-color:#274B95"/>
   <stop offset="0.94902" style="stop-opacity:1; stop-color:#274B95"/>
   <stop offset="0.960784" style="stop-opacity:1; stop-color:#1C5B8F"/>
   <stop offset="0.968627" style="stop-opacity:1; stop-color:#126B84"/>
   <stop offset="0.980392" style="stop-opacity:1; stop-color:#147973"/>
   <stop offset="0.988235" style="stop-opacity:1; stop-color:#10875B"/>
   <stop offset="1" style="stop-opacity:1; stop-color:#1B9440"/>
  </linearGradient>
 </defs>
 <g id="Layer_x0020_1">
  <metadata id="CorelCorpID_0Corel-Layer"/>
  <path class="fil0" d="M5315.16 4005.44l0 0 27.69 0c142.61,0 278.3,-113.54 303.22,-253.38l16.61 -89.99c24.92,-139.84 -69.23,-253.38 -211.84,-253.38l-437.52 0c-18,0 -30.46,-13.85 -27.69,-31.84l11.08 -60.92c2.77,-18 20.77,-31.85 38.77,-31.85l591.2 0c30.46,0 59.54,-23.54 65.08,-52.61l24.92 -139.84c5.54,-30.46 -15.23,-54 -45.69,-54l-646.59 0c-142.61,0 -278.3,113.53 -303.22,253.37l-18 98.31c-24.92,139.84 69.23,253.37 211.84,253.37l437.52 0c18,0 30.46,13.85 27.69,31.85l-8.31 45.69c-2.77,18 -20.77,31.84 -38.77,31.84l-607.82 0c-30.46,0 -59.54,23.54 -65.07,52.62l-26.31 146.76c-5.54,29.07 15.23,52.61 45.69,52.61l635.52 1.39zm346.14 -22.15c5.54,13.85 19.39,22.15 36,22.15l233.99 0c16.61,0 34.62,-9.69 45.69,-24.92l36 -51.23 19.39 -29.08 467.98 0 24.92 80.31c4.15,15.23 16.61,24.92 31.85,24.92l221.53 0c13.84,0 29.07,-8.31 38.77,-22.15 9.69,-13.84 12.46,-30.46 8.31,-44.3l-276.91 -850.13c-18,-51.22 -66.46,-49.84 -66.46,-49.84 -24.92,0 -47.07,0 -67.84,0 -5.54,0 -11.08,0 -16.62,0 -2.77,0 -5.54,0 -8.31,0 -16.61,0 -30.46,0 -44.3,0l0 1.39c0,0 0,0 0,0l0 -1.39c-49.84,1.39 -85.85,11.08 -114.92,49.84l-560.74 850.13c-9.69,13.84 -12.46,30.46 -6.92,44.3l-1.39 0zm688.13 -566.29l80.31 251.99 -245.07 0 164.76 -251.99zm602.29 588.44l182.76 0c30.46,0 59.54,-23.54 65.07,-52.61l55.38 -303.22c1.39,-5.54 6.93,-11.08 12.46,-11.08l455.52 0c18,0 36,-13.84 38.77,-31.85l30.46 -167.53c2.77,-18 -9.69,-33.23 -27.69,-33.23l-455.52 0c-5.54,0 -9.69,-5.54 -8.31,-11.08l18 -99.69c1.39,-5.54 6.92,-11.07 12.46,-11.07l566.28 0c18,0 36,-13.85 38.77,-31.85l33.23 -182.76c2.77,-18 -9.69,-31.84 -27.69,-31.84l-814.13 0c-30.46,0 -59.54,23.54 -65.07,52.61l-155.07 861.2c-5.54,29.07 15.23,52.61 45.69,52.61l-1.38 1.39zm999.65 0l816.89 0c18,0 36,-15.23 38.77,-33.23l34.61 -189.69c2.77,-18 -9.69,-31.85 -27.69,-31.85l-567.67 0c-5.54,0 -9.69,-5.54 -8.31,-11.08l16.61 -92.76c1.38,-5.54 6.92,-11.07 12.46,-11.07l456.91 0c18,0 36,-15.23 38.77,-33.23l30.46 -167.53c2.77,-18 -9.69,-31.85 -27.69,-31.85l-456.91 0c-5.54,0 -9.69,-5.54 -8.31,-11.07l18 -99.69c1.38,-5.54 6.92,-11.08 12.46,-11.08l567.67 0c18,0 36,-15.23 38.77,-33.23l33.23 -182.76c2.77,-18 -9.69,-33.23 -27.69,-33.23l-816.9 0c-30.46,0 -59.53,23.54 -65.07,52.61l-156.46 862.59c-5.54,29.07 15.23,52.61 45.69,52.61l1.39 5.54z"/>
  <path class="fil0" d="M5315.16 5229.35l0 0 27.69 0c142.61,0 278.3,-113.54 303.22,-253.38l16.61 -89.99c24.92,-139.84 -69.23,-253.38 -211.84,-253.38l-437.52 0c-18,0 -30.46,-13.85 -27.69,-31.84l11.08 -60.92c2.77,-18 20.77,-31.85 38.77,-31.85l591.2 0c30.46,0 59.54,-23.54 65.08,-52.61l24.92 -139.84c5.54,-30.46 -15.23,-54 -45.69,-54l-646.59 0c-142.61,0 -278.3,113.53 -303.22,253.37l-18 98.31c-24.92,139.84 69.23,253.37 211.84,253.37l437.52 0c18,0 30.46,13.85 27.69,31.85l-8.31 45.69c-2.77,18 -20.77,31.84 -38.77,31.84l-607.82 0c-30.46,0 -59.54,23.54 -65.07,52.62l-26.31 146.76c-5.54,29.07 15.23,52.61 45.69,52.61l635.52 1.39zm636.9 -967.81c-30.46,0 -59.54,23.54 -65.07,52.61l-155.07 861.2c-5.54,29.07 15.23,52.61 45.69,52.61l164.76 0c30.46,0 59.54,-23.54 65.08,-52.61l62.3 -341.99 113.54 365.53c5.54,19.38 22.15,31.84 42.92,31.84l218.76 0c20.77,0 42.92,-12.46 55.38,-31.84l245.07 -366.91 -62.31 344.76c-5.54,29.07 15.23,52.61 45.69,52.61l164.76 0c30.46,0 59.54,-23.54 65.08,-52.61l155.07 -861.2c5.54,-29.07 -15.23,-52.61 -45.69,-52.61l-211.84 0c-20.77,0 -42.92,12.46 -55.38,31.84l-402.91 603.67c-6.92,9.69 -22.15,6.92 -24.92,-4.15l-164.76 -599.52c-5.54,-19.38 -22.15,-31.84 -42.92,-31.84l-213.22 -1.39zm1086.89 945.66c5.54,13.85 19.38,22.15 36,22.15l233.99 0c16.61,0 34.62,-9.69 45.7,-24.92l36 -51.23 19.38 -29.08 467.98 0 24.92 80.31c4.15,15.23 16.61,24.92 31.84,24.92l221.53 0c13.85,0 29.07,-8.31 38.77,-22.15 9.69,-13.85 12.46,-30.46 8.31,-44.3l-276.91 -850.13c-18,-51.23 -66.46,-49.84 -66.46,-49.84 -24.92,0 -47.07,0 -67.85,0 -5.54,0 -11.07,0 -16.61,0 -2.77,0 -5.54,0 -8.31,0 -16.61,0 -30.46,0 -44.3,0l0 1.39c0,0 0,0 0,0l0 -1.39c-49.84,1.39 -85.85,11.07 -114.92,49.84l-560.74 850.13c-9.69,13.84 -12.46,30.46 -6.93,44.3l-1.38 0zm688.13 -566.29l80.31 251.99 -245.07 0 164.76 -251.99zm602.28 588.44l182.76 0c30.46,0 59.54,-23.54 65.08,-52.61l31.84 -178.61c1.39,-5.54 6.93,-11.08 12.46,-11.08l221.54 0c11.07,0 20.77,5.54 24.92,13.85l103.84 203.53c12.46,23.54 34.62,26.3 101.07,24.92 38.77,0 98.3,-2.77 193.84,-2.77 30.46,0 49.85,-31.84 34.61,-58.15l-113.54 -198c-2.77,-5.54 0,-12.46 6.93,-15.23 87.22,-42.92 156.46,-126 174.45,-221.53l40.15 -220.15c24.92,-139.84 -69.23,-253.37 -211.84,-253.37l-690.9 0c-30.46,0 -59.54,23.54 -65.07,52.61l-156.45 862.59c-5.54,29.07 15.23,52.61 45.69,52.61l-1.39 1.39zm368.3 -717.2c1.39,-5.54 6.93,-11.08 12.46,-11.08l357.22 0c75.25,0 23.98,145.45 15.23,193.84 -5.54,26.31 -30.46,48.46 -56.77,48.46l-357.22 0c-5.54,0 -9.69,-4.15 -8.31,-9.69l37.39 -221.53zm1734.85 -251.99l-848.74 0c-30.46,0 -59.54,23.54 -65.07,52.61l-24.93 139.84c-5.54,29.07 15.24,52.61 45.7,52.61l267.22 0c5.54,0 9.69,4.15 8.31,9.69l-119.07 657.67c-5.54,29.07 15.23,52.61 45.69,52.61l182.76 0c30.46,0 59.54,-23.54 65.07,-52.61l119.07 -657.67c1.38,-5.54 6.92,-11.07 12.46,-11.07l267.22 0c30.46,0 59.54,-23.54 65.08,-52.61l24.92 -139.84c5.54,-29.07 -13.85,-52.61 -44.31,-52.61l-1.38 1.39z"/>
  <path class="fil0" d="M5867.04 5492.28c-11.98,0 -21.96,3.7 -29.94,11.4 -7.7,7.41 -11.69,17.11 -11.69,28.52 0,8.84 2.56,16.54 7.41,23.39 4.84,6.84 14.26,13.97 27.94,20.81 12.54,6.56 20.81,11.98 24.52,16.26 3.7,4.27 5.41,9.12 5.41,14.83 0,6.84 -2.85,12.54 -8.27,17.68 -5.41,4.85 -11.97,7.41 -19.96,7.41 -11.13,0 -21.67,-5.7 -31.65,-16.82l-12.26 13.98c5.13,6.56 11.69,11.97 19.68,15.68 7.98,3.7 16.26,5.7 25.09,5.7 13.12,0 23.95,-4.28 32.79,-12.83 8.84,-8.84 13.12,-19.39 13.12,-31.65 0,-8.85 -2.57,-16.83 -7.7,-23.96 -5.13,-6.84 -15.11,-13.97 -29.37,-21.67 -11.98,-5.99 -19.68,-11.41 -23.38,-15.97 -3.71,-4.28 -5.7,-9.13 -5.7,-13.97 0,-5.42 2.28,-10.27 6.84,-14.54 4.57,-4.28 9.98,-6.28 16.26,-6.28 9.98,0 19.96,5.13 30.51,15.11l12.55 -12.83c-14.26,-13.4 -28.23,-20.24 -42.2,-20.24zm207.88 3.7l0 27.94c-7.7,-10.56 -16.54,-18.54 -26.52,-23.95 -9.98,-5.13 -21.39,-7.7 -33.65,-7.7 -21.39,0 -39.92,7.7 -55.32,23.09 -15.11,15.69 -22.81,34.22 -22.81,55.89 0,22.24 7.7,41.06 22.81,56.46 15.11,15.68 33.36,23.38 54.75,23.38 11.98,0 23.1,-2.57 33.37,-7.41 9.98,-4.85 19.1,-12.26 27.37,-22.24l0 25.95 19.39 0 0 -151.42 -19.39 0zm-16.26 32.79c11.7,11.69 17.39,26.24 17.39,43.63 0,11.41 -2.56,21.67 -7.7,31.08 -5.13,9.13 -12.54,16.26 -21.96,21.67 -9.69,5.42 -19.67,7.98 -30.22,7.98 -10.55,0 -20.53,-2.56 -29.65,-7.98 -9.13,-5.42 -16.54,-13.12 -21.96,-22.81 -5.42,-9.69 -8.27,-19.68 -8.27,-30.51 0,-10.55 2.56,-20.82 7.98,-30.51 5.41,-9.41 12.83,-16.82 21.95,-22.24 9.13,-5.42 19.11,-7.98 29.94,-7.98 16.83,0 31.09,5.99 42.49,17.68zm119.48 -94.96c-6.85,0 -12.55,1.43 -17.39,4.28 -4.85,2.85 -7.98,6.56 -9.98,11.12 -2,4.56 -3.14,12.26 -3.14,23.1l0 23.67 -19.96 0 0 16.82 19.96 0 0 134.59 19.39 0 0 -134.59 31.94 0 0 -16.82 -31.94 0 0 -20.54c0,-8.55 0.57,-13.68 1.14,-15.68 0.57,-2 2.28,-3.99 4.85,-5.41 2.28,-1.43 5.7,-2.29 9.41,-2.29 5.13,0 11.4,1.43 18.53,4.57l0 -18.82c-8.84,-2.57 -16.54,-3.99 -22.81,-3.99zm160.83 184.78c-5.13,4.28 -11.41,7.98 -18.82,10.56 -7.13,2.56 -14.83,3.99 -22.53,3.99 -15.97,0 -29.37,-5.7 -40.49,-16.82 -10.84,-11.12 -16.54,-25.66 -16.82,-43.06l136.87 0c-0.29,-20.53 -5.7,-37.93 -16.83,-51.61 -15.4,-19.67 -36.21,-29.37 -61.88,-29.37 -25.37,0 -45.34,9.41 -60.45,28.51 -11.69,15.11 -17.68,32.22 -17.68,51.33 0,20.25 6.84,38.5 20.82,54.75 13.97,16.25 33.36,24.24 58.17,24.24 11.13,0 21.39,-1.71 30.23,-5.13 8.84,-3.43 16.82,-8.27 23.67,-14.54 7.13,-6.56 13.4,-15.11 18.82,-25.66l-16.54 -8.56c-5.99,9.7 -11.41,16.83 -16.54,21.39zm-96.67 -62.16c3.99,-13.97 9.98,-24.24 17.68,-31.37 10.84,-9.41 23.67,-14.26 38.5,-14.26 9.13,0 17.97,2 25.95,5.7 8.27,3.7 14.83,8.84 19.96,15.11 4.85,5.99 8.84,14.54 11.41,24.81l-113.49 0zm187.63 -60.45l-26.52 0 0 16.82 26.52 0 0 134.59 19.39 0 0 -134.59 30.8 0 0 -16.82 -30.8 0 0 -56.46 -19.39 0 0 56.46zm126.04 138.87l-29.66 67.87 20.81 0 90.4 -206.74 -20.82 0 -50.76 116.06 -52.19 -116.06 -20.24 0 62.45 138.87zm178.22 12.55l19.96 0 0 -51.33c0,-26.23 1.14,-43.63 3.7,-52.19 3.13,-11.12 7.7,-19.39 13.69,-24.81 5.99,-5.42 12.26,-7.98 18.82,-7.98 2.85,0 6.27,0.86 10.27,2.57l10.26 -16.25c-6.28,-3.42 -11.98,-5.13 -17.39,-5.13 -7.13,0 -13.97,1.99 -20.53,6.27 -6.56,4.28 -12.83,10.84 -18.82,19.68l0 -22.24 -19.96 0 0 151.42zm204.46 -28.8c-5.13,4.28 -11.41,7.98 -18.82,10.56 -7.13,2.56 -14.83,3.99 -22.53,3.99 -15.97,0 -29.37,-5.7 -40.49,-16.82 -10.84,-11.12 -16.54,-25.66 -16.82,-43.06l136.87 0c-0.28,-20.53 -5.7,-37.93 -16.83,-51.61 -15.4,-19.67 -36.21,-29.37 -61.88,-29.37 -25.38,0 -45.34,9.41 -60.45,28.51 -11.69,15.11 -17.68,32.22 -17.68,51.33 0,20.25 6.85,38.5 20.82,54.75 13.97,16.25 33.36,24.24 58.17,24.24 11.12,0 21.39,-1.71 30.22,-5.13 8.84,-3.43 16.83,-8.27 23.67,-14.54 7.13,-6.56 13.4,-15.11 18.82,-25.66l-16.54 -8.56c-5.99,9.7 -11.41,16.83 -16.54,21.39zm-96.67 -62.16c3.99,-13.97 9.98,-24.24 17.68,-31.37 10.84,-9.41 23.67,-14.26 38.5,-14.26 9.12,0 17.97,2 25.95,5.7 8.27,3.7 14.83,8.84 19.96,15.11 4.85,5.99 8.84,14.54 11.41,24.81l-113.49 0zm166.24 -117.77c-3.13,3.13 -4.56,6.84 -4.56,11.4 0,4.28 1.43,7.98 4.56,11.12 3.14,3.14 7.13,4.85 11.41,4.85 4.28,0 8.27,-1.71 11.4,-4.85 3.14,-3.14 4.57,-6.84 4.57,-11.12 0,-4.56 -1.43,-8.27 -4.57,-11.4 -3.13,-3.14 -7.13,-4.85 -11.4,-4.85 -4.28,0 -8.27,1.71 -11.41,4.85zm1.71 208.73l19.39 0 0 -151.42 -19.39 0 0 151.42zm59.89 0l19.39 0 0 -55.32c0,-19.96 0.86,-33.65 2.86,-41.35 2.85,-11.41 9.12,-21.1 18.53,-28.8 9.12,-7.7 19.68,-11.69 31.65,-11.69 10.27,0 18.54,2.57 25.1,7.7 6.28,4.85 10.83,12.55 13.11,22.53 1.43,5.7 2.28,17.39 2.28,34.79l0 72.15 19.39 0 0 -77.85c0,-20.53 -2,-35.65 -6.28,-45.34 -4.28,-9.98 -10.55,-17.69 -19.39,-23.39 -8.84,-5.7 -18.82,-8.55 -30.23,-8.55 -11.12,0 -21.67,2.56 -31.08,7.7 -9.41,5.13 -18.25,12.83 -25.95,23.1l0 -27.09 -19.39 0 0 151.42zm229.55 0l3.71 0 69.29 -151.42 -20.82 0 -50.76 110.64 -51.04 -110.64 -20.25 0 69.86 151.42zm213.59 -28.8c-5.14,4.28 -11.41,7.98 -18.82,10.56 -7.13,2.56 -14.83,3.99 -22.53,3.99 -15.97,0 -29.37,-5.7 -40.49,-16.82 -10.84,-11.12 -16.54,-25.66 -16.82,-43.06l136.87 0c-0.28,-20.53 -5.7,-37.93 -16.83,-51.61 -15.4,-19.67 -36.21,-29.37 -61.88,-29.37 -25.38,0 -45.34,9.41 -60.45,28.51 -11.69,15.11 -17.68,32.22 -17.68,51.33 0,20.25 6.85,38.5 20.82,54.75 13.97,16.25 33.36,24.24 58.17,24.24 11.12,0 21.39,-1.71 30.22,-5.13 8.84,-3.43 16.82,-8.27 23.67,-14.54 7.13,-6.56 13.4,-15.11 18.82,-25.66l-16.54 -8.56c-5.99,9.7 -11.41,16.83 -16.54,21.39zm-96.67 -62.16c3.99,-13.97 9.98,-24.24 17.68,-31.37 10.84,-9.41 23.67,-14.26 38.5,-14.26 9.12,0 17.97,2 25.95,5.7 8.27,3.7 14.83,8.84 19.96,15.11 4.85,5.99 8.84,14.54 11.41,24.81l-113.49 0zm170.8 90.96l19.39 0 0 -55.32c0,-19.96 0.86,-33.65 2.85,-41.35 2.85,-11.41 9.12,-21.1 18.53,-28.8 9.13,-7.7 19.68,-11.69 31.65,-11.69 10.27,0 18.54,2.57 25.09,7.7 6.28,4.85 10.83,12.55 13.11,22.53 1.43,5.7 2.29,17.39 2.29,34.79l0 72.15 19.39 0 0 -77.85c0,-20.53 -2,-35.65 -6.28,-45.34 -4.27,-9.98 -10.55,-17.69 -19.39,-23.39 -8.84,-5.7 -18.82,-8.55 -30.23,-8.55 -11.12,0 -21.67,2.56 -31.08,7.7 -9.41,5.13 -18.26,12.83 -25.95,23.1l0 -27.09 -19.39 0 0 151.42zm190.77 -151.42l-26.52 0 0 16.82 26.52 0 0 134.59 19.39 0 0 -134.59 30.8 0 0 -16.82 -30.8 0 0 -56.46 -19.39 0 0 56.46zm191.06 122.61c-5.14,4.28 -11.41,7.98 -18.82,10.56 -7.13,2.56 -14.83,3.99 -22.53,3.99 -15.97,0 -29.37,-5.7 -40.49,-16.82 -10.84,-11.12 -16.54,-25.66 -16.82,-43.06l136.87 0c-0.28,-20.53 -5.7,-37.93 -16.83,-51.61 -15.4,-19.67 -36.21,-29.37 -61.88,-29.37 -25.38,0 -45.34,9.41 -60.45,28.51 -11.69,15.11 -17.68,32.22 -17.68,51.33 0,20.25 6.85,38.5 20.82,54.75 13.97,16.25 33.36,24.24 58.17,24.24 11.12,0 21.39,-1.71 30.22,-5.13 8.84,-3.43 16.83,-8.27 23.67,-14.54 7.13,-6.56 13.4,-15.11 18.82,-25.66l-16.54 -8.56c-5.99,9.7 -11.41,16.83 -16.54,21.39zm-96.67 -62.16c3.99,-13.97 9.98,-24.24 17.68,-31.37 10.84,-9.41 23.67,-14.26 38.5,-14.26 9.12,0 17.97,2 25.95,5.7 8.27,3.7 14.83,8.84 19.96,15.11 4.85,5.99 8.84,14.54 11.41,24.81l-113.49 0zm302.54 -118.91l0 86.41c-7.7,-10.56 -16.54,-18.54 -26.52,-23.67 -9.98,-5.42 -21.39,-7.98 -33.65,-7.98 -21.39,0 -39.92,7.7 -55.32,23.09 -15.11,15.69 -22.81,34.22 -22.81,55.89 0,22.24 7.7,41.06 22.81,56.46 15.11,15.68 33.36,23.38 54.75,23.38 11.98,0 23.1,-2.57 33.37,-7.41 9.98,-4.85 19.1,-12.26 27.37,-22.24l0 25.95 19.39 0 0 -209.88 -19.39 0zm-16.25 91.25c11.69,11.69 17.39,26.24 17.39,43.63 0,11.41 -2.56,21.67 -7.7,31.08 -5.13,9.13 -12.54,16.26 -21.96,21.67 -9.69,5.42 -19.67,7.98 -30.22,7.98 -10.55,0 -20.53,-2.56 -29.65,-7.98 -9.13,-5.42 -16.54,-13.12 -21.96,-22.81 -5.42,-9.69 -8.27,-19.68 -8.27,-30.51 0,-10.55 2.57,-20.82 7.98,-30.51 5.42,-9.41 12.83,-16.82 21.96,-22.24 9.12,-5.42 19.1,-7.98 29.94,-7.98 16.83,0 31.09,5.99 42.49,17.68zm202.75 118.63l3.7 0 48.48 -108.36 47.91 108.36 3.99 0 65.3 -151.42 -19.96 0 -47.05 109.79 -48.48 -109.79 -3.71 0 -48.19 109.79 -46.2 -109.79 -20.25 0 64.45 151.42zm188.48 -208.73c-3.13,3.13 -4.56,6.84 -4.56,11.4 0,4.28 1.43,7.98 4.56,11.12 3.14,3.14 7.13,4.85 11.41,4.85 4.28,0 8.27,-1.71 11.4,-4.85 3.14,-3.14 4.57,-6.84 4.57,-11.12 0,-4.56 -1.43,-8.27 -4.57,-11.4 -3.13,-3.14 -7.13,-4.85 -11.4,-4.85 -4.28,0 -8.27,1.71 -11.41,4.85zm1.71 208.73l19.39 0 0 -151.42 -19.39 0 0 151.42zm76.71 -151.42l-26.52 0 0 16.82 26.52 0 0 134.59 19.39 0 0 -134.59 30.8 0 0 -16.82 -30.8 0 0 -56.46 -19.39 0 0 56.46zm79.85 151.42l19.39 0 0 -55.32c0,-20.25 0.86,-33.94 2.85,-41.35 2.85,-11.41 9.12,-21.1 18.53,-28.8 9.41,-7.7 19.96,-11.69 31.65,-11.69 10.56,0 18.83,2.57 25.1,7.7 6.56,4.85 10.83,12.55 13.4,22.53 1.43,5.7 2,17.39 2,34.79l0 72.15 19.39 0 0 -77.85c0,-20.53 -2,-35.93 -6.28,-45.63 -4.28,-9.7 -10.55,-17.4 -19.39,-23.1 -8.84,-5.7 -18.82,-8.55 -30.23,-8.55 -11.12,0 -21.39,2.56 -30.8,7.7 -9.69,5.13 -18.26,12.83 -26.24,23.38l0 -85.83 -19.39 0 0 209.88zm287.15 -155.12c-11.98,0 -21.96,3.7 -29.94,11.4 -7.7,7.41 -11.69,17.11 -11.69,28.52 0,8.84 2.56,16.54 7.41,23.39 4.84,6.84 14.26,13.97 27.94,20.81 12.54,6.56 20.81,11.98 24.52,16.26 3.7,4.27 5.41,9.12 5.41,14.83 0,6.84 -2.85,12.54 -8.27,17.68 -5.41,4.85 -11.97,7.41 -19.96,7.41 -11.13,0 -21.67,-5.7 -31.65,-16.82l-12.26 13.98c5.13,6.56 11.69,11.97 19.68,15.68 7.98,3.7 16.26,5.7 25.09,5.7 13.12,0 23.95,-4.28 32.79,-12.83 8.84,-8.84 13.12,-19.39 13.12,-31.65 0,-8.85 -2.57,-16.83 -7.7,-23.96 -5.13,-6.84 -15.11,-13.97 -29.37,-21.67 -11.98,-5.99 -19.68,-11.41 -23.38,-15.97 -3.71,-4.28 -5.7,-9.13 -5.7,-13.97 0,-5.42 2.28,-10.27 6.84,-14.54 4.57,-4.28 9.98,-6.28 16.26,-6.28 9.98,0 19.96,5.13 30.51,15.11l12.55 -12.83c-14.26,-13.4 -28.23,-20.24 -42.2,-20.24zm76.43 155.12l19.39 0 0 -64.16c0,-18.82 2,-32.8 5.7,-42.2 3.71,-9.13 9.41,-16.26 17.39,-21.67 7.7,-5.42 16.26,-8.27 25.1,-8.27 7.98,0 14.54,2 20.24,5.99 5.7,3.99 9.7,9.12 11.98,15.68 2.28,6.56 3.42,18.82 3.42,37.07l0 77.56 19.39 0 0 -59.31c0,-21.67 1.71,-37.07 5.42,-46.48 3.7,-9.12 9.41,-16.54 17.11,-22.24 7.98,-5.42 16.54,-8.27 25.94,-8.27 7.7,0 14.54,2 19.96,5.7 5.7,3.7 9.69,8.56 11.98,14.54 2.28,5.98 3.42,17.11 3.42,33.36l0 82.7 19.96 0 0 -82.7c0,-18.82 -2,-33.07 -5.7,-42.48 -4,-9.41 -9.98,-16.83 -17.96,-21.96 -7.98,-5.42 -17.4,-7.98 -27.66,-7.98 -11.41,0 -21.67,3.13 -31.37,9.12 -9.98,6.28 -17.97,15.4 -24.52,27.09 -2.85,-8.84 -6.56,-15.68 -10.84,-20.53 -3.99,-4.56 -9.41,-8.56 -16.25,-11.41 -6.56,-2.85 -13.41,-4.27 -20.82,-4.27 -10.83,0 -21.1,2.85 -31.08,8.84 -7.13,4.27 -13.97,11.4 -20.81,21.1l0 -26.24 -19.39 0 0 151.42zm398.93 -151.42l0 27.94c-7.7,-10.56 -16.54,-18.54 -26.52,-23.95 -9.98,-5.13 -21.39,-7.7 -33.65,-7.7 -21.39,0 -39.92,7.7 -55.32,23.09 -15.11,15.69 -22.81,34.22 -22.81,55.89 0,22.24 7.7,41.06 22.81,56.46 15.11,15.68 33.36,23.38 54.75,23.38 11.98,0 23.1,-2.57 33.37,-7.41 9.98,-4.85 19.1,-12.26 27.37,-22.24l0 25.95 19.39 0 0 -151.42 -19.39 0zm-16.26 32.79c11.69,11.69 17.39,26.24 17.39,43.63 0,11.41 -2.56,21.67 -7.7,31.08 -5.13,9.13 -12.54,16.26 -21.96,21.67 -9.69,5.42 -19.67,7.98 -30.22,7.98 -10.55,0 -20.53,-2.56 -29.65,-7.98 -9.13,-5.42 -16.54,-13.12 -21.96,-22.81 -5.42,-9.69 -8.27,-19.68 -8.27,-30.51 0,-10.55 2.56,-20.82 7.98,-30.51 5.41,-9.41 12.83,-16.82 21.95,-22.24 9.13,-5.42 19.11,-7.98 29.94,-7.98 16.83,0 31.09,5.99 42.49,17.68zm72.15 118.63l19.96 0 0 -51.33c0,-26.23 1.14,-43.63 3.7,-52.19 3.13,-11.12 7.7,-19.39 13.69,-24.81 5.99,-5.42 12.26,-7.98 18.82,-7.98 2.85,0 6.27,0.86 10.27,2.57l10.26 -16.25c-6.28,-3.42 -11.98,-5.13 -17.39,-5.13 -7.13,0 -13.97,1.99 -20.53,6.27 -6.56,4.28 -12.83,10.84 -18.82,19.68l0 -22.24 -19.96 0 0 151.42zm110.07 -151.42l-26.52 0 0 16.82 26.52 0 0 134.59 19.39 0 0 -134.59 30.8 0 0 -16.82 -30.8 0 0 -56.46 -19.39 0 0 56.46zm175.65 0l-26.52 0 0 16.82 26.52 0 0 134.59 19.39 0 0 -134.59 30.8 0 0 -16.82 -30.8 0 0 -56.46 -19.39 0 0 56.46zm191.06 122.61c-5.13,4.28 -11.41,7.98 -18.82,10.56 -7.13,2.56 -14.83,3.99 -22.53,3.99 -15.97,0 -29.37,-5.7 -40.49,-16.82 -10.84,-11.12 -16.54,-25.66 -16.82,-43.06l136.87 0c-0.28,-20.53 -5.7,-37.93 -16.83,-51.61 -15.4,-19.67 -36.21,-29.37 -61.88,-29.37 -25.37,0 -45.34,9.41 -60.45,28.51 -11.69,15.11 -17.68,32.22 -17.68,51.33 0,20.25 6.85,38.5 20.82,54.75 13.97,16.25 33.36,24.24 58.17,24.24 11.12,0 21.39,-1.71 30.22,-5.13 8.84,-3.43 16.82,-8.27 23.67,-14.54 7.13,-6.56 13.4,-15.11 18.82,-25.66l-16.54 -8.56c-5.99,9.7 -11.41,16.83 -16.54,21.39zm-96.67 -62.16c3.99,-13.97 9.98,-24.24 17.68,-31.37 10.84,-9.41 23.67,-14.26 38.49,-14.26 9.13,0 17.97,2 25.95,5.7 8.27,3.7 14.83,8.84 19.96,15.11 4.85,5.99 8.84,14.54 11.41,24.81l-113.49 0zm301.41 -47.62c-6.56,-4.85 -14.54,-8.84 -23.95,-11.98 -9.41,-3.13 -19.11,-4.56 -29.09,-4.56 -15.97,0 -30.51,3.42 -43.35,10.55 -12.83,7.13 -23.1,16.82 -30.51,29.37 -7.41,12.55 -11.12,26.23 -11.12,40.78 0,21.67 7.98,40.21 23.67,55.32 15.97,15.11 35.93,22.81 59.89,22.81 15.68,0 29.66,-3.13 41.63,-9.13 12.26,-5.99 22.24,-14.26 29.37,-25.09l-15.4 -10.26c-14.26,17.68 -32.5,26.52 -54.75,26.52 -12.26,0 -23.38,-2.56 -33.07,-7.98 -9.98,-5.42 -17.69,-12.83 -23.1,-22.81 -5.7,-9.69 -8.56,-19.96 -8.56,-30.8 0,-17.11 5.99,-31.37 18.25,-43.35 12.26,-11.69 27.66,-17.68 46.2,-17.68 23.38,0 41.63,8.84 55.03,26.52l15.4 -9.69c-4.56,-7.41 -9.98,-13.69 -16.54,-18.54zm53.89 138.59l19.39 0 0 -55.32c0,-20.25 0.86,-33.94 2.85,-41.35 2.85,-11.41 9.13,-21.1 18.54,-28.8 9.41,-7.7 19.96,-11.69 31.65,-11.69 10.56,0 18.82,2.57 25.1,7.7 6.56,4.85 10.83,12.55 13.4,22.53 1.43,5.7 2,17.39 2,34.79l0 72.15 19.39 0 0 -77.85c0,-20.53 -2,-35.93 -6.28,-45.63 -4.28,-9.7 -10.55,-17.4 -19.39,-23.1 -8.84,-5.7 -18.82,-8.55 -30.22,-8.55 -11.13,0 -21.39,2.56 -30.8,7.7 -9.69,5.13 -18.25,12.83 -26.24,23.38l0 -85.83 -19.39 0 0 209.88z"/>
  <path class="fil1" d="M2804.61 2647.15l0 -516.61c0,-4.5 0.81,-8.89 1.89,-21.17 14.68,9.08 26.5,15.71 37.7,23.3 447.43,301.61 894.47,603.8 1342.6,904.33 32.43,21.76 43.33,44.6 43.17,83.2 -1.62,332.88 -0.89,665.84 -0.89,998.72l0 0.43c0,24.46 -27.33,38.97 -47.56,25.37 -141.05,-95.21 -275.57,-185.67 -408.91,-277.73 -11.2,-7.7 -17.72,-29.57 -17.91,-44.87 -1.24,-155.19 -0.08,-310.5 -1.7,-465.76 -0.19,-16.41 -8.59,-39.33 -20.95,-47.92 -143.39,-99.32 -288.2,-196.5 -432.74,-294.02 -3.58,-2.43 -8.14,-3.13 -16.19,-6.17 -1.27,10.83 -3.31,20.15 -3.31,29.46 -0.27,209.02 0.44,418.02 -1.08,627.06 -0.19,29.63 11.02,45.3 34.13,60.89 293.02,197.12 585.24,395.55 878.61,592.21 28.12,18.91 38.52,38.35 38.43,72.29 -1.27,431.37 -0.81,862.85 -0.81,1294.34l0 0.35c0,25.53 -20.71,46.14 -46.1,46.14l-1308.77 -0.49c-36.55,0 -66.2,-29.65 -66.2,-66.17l0 -1535.41c43.28,27.69 83.19,51.15 121.89,82.84 94.05,77.11 194.26,146.51 302.42,202.02 37.54,19.28 48.02,37.54 47.81,71.04 -0.97,237.41 -0.51,474.71 -0.51,712.14l0 8.86c0,23.19 18.8,41.99 42.02,41.99l390.28 0c23.19,0 41.98,-18.8 41.98,-41.99 0,-189.3 -0.62,-378.63 0.73,-567.86 0.16,-25 -12.09,-48.26 -32.78,-62.16 -296.88,-199.43 -593.13,-399.78 -888.57,-601.26 -13.98,-9.5 -27.5,-31.81 -27.58,-48.18 -0.19,-80.15 -0.46,-240.56 -0.46,-240.56l-0.62 -1038.67z"/>
  <path class="fil2 str0" d="M2687.97 2647.15l0 -516.61c0,-4.5 -0.81,-8.89 -1.89,-21.17 -14.68,9.08 -26.5,15.71 -37.7,23.3 -447.43,301.61 -894.48,603.8 -1342.6,904.33 -32.43,21.76 -43.36,44.6 -43.17,83.2 1.62,332.88 0.89,665.84 0.89,998.72l0 0.43c0,24.46 27.31,38.97 47.56,25.37 141.04,-95.21 275.57,-185.67 408.88,-277.73 11.2,-7.7 17.75,-29.57 17.94,-44.87 1.24,-155.19 0.08,-310.5 1.7,-465.76 0.19,-16.41 8.59,-39.33 20.95,-47.92 143.36,-99.32 288.2,-196.5 432.75,-294.02 3.56,-2.43 8.13,-3.13 16.19,-6.17 1.26,10.83 3.34,20.15 3.34,29.46 0.24,209.02 -0.46,418.02 1.05,627.06 0.19,29.63 -11.02,45.3 -34.09,60.89 -293.05,197.12 -585.26,395.55 -878.64,592.21 -28.15,18.91 -38.52,38.35 -38.43,72.29 1.27,431.37 0.81,862.85 0.81,1294.34l0 0.35c0,25.53 20.68,46.14 46.11,46.14l1308.78 -0.49c36.55,0 66.2,-29.65 66.2,-66.17l0 -1535.41c-43.28,27.69 -83.22,51.15 -121.89,82.84 -94.05,77.11 -194.26,146.51 -302.45,202.02 -37.51,19.28 -47.99,37.54 -47.8,71.04 1,237.41 0.54,474.71 0.54,712.14l0 8.86c0,23.19 -18.83,41.99 -42.01,41.99l-390.28 0c-23.19,0 -42.02,-18.8 -42.02,-41.99 0,-189.3 0.65,-378.63 -0.7,-567.86 -0.19,-25 12.09,-48.26 32.78,-62.16 296.87,-199.43 593.13,-399.78 888.57,-601.26 13.98,-9.5 27.5,-31.81 27.57,-48.18 0.17,-80.15 0.46,-240.56 0.46,-240.56l0.62 -1038.67z"/>
  <path class="fil3" d="M3208.57 4123.15c0,255.29 -206.97,462.26 -462.26,462.26 -255.32,0 -462.27,-206.98 -462.27,-462.26 0,-255.32 206.95,-462.27 462.27,-462.27 255.29,0 462.26,206.95 462.26,462.27z"/>
  <path class="fil0" d="M2909.57 4398.45l-12.31 -21.33c-2.23,-3.85 -7.17,-5.2 -11.02,-2.94 -3.85,2.21 -5.17,7.17 -2.93,11.02l12.3 21.33c-44.57,23.59 -95.28,37.11 -149.15,37.14l0 -23c0,-4.44 -3.61,-8.08 -8.05,-8.08 -4.48,0 -8.09,3.64 -8.09,8.08l0 22.19c-51.41,-2.56 -99.65,-17.05 -141.93,-41.13l15.22 -26.36c2.21,-3.85 0.91,-8.78 -2.96,-10.99 -3.85,-2.23 -8.78,-0.91 -11.01,2.93l-15.03 26.05c-42.72,-27.23 -78.48,-64.26 -104.28,-107.97l22.68 -13.07c3.85,-2.23 5.17,-7.17 2.93,-11.02 -2.23,-3.85 -7.14,-5.2 -11.01,-2.93l-22.57 13.04c-22.57,-43.09 -35.63,-91.87 -36.36,-143.63l22.76 0c4.47,0 8.08,-3.63 8.08,-8.08 0,-4.44 -3.61,-8.05 -8.08,-8.05l-22.41 0c1.8,-51.09 15.3,-99.24 38.41,-141.58l17.96 10.37c1.27,0.75 2.67,1.11 4.02,1.11 2.8,0 5.5,-1.43 6.98,-4.04 2.23,-3.85 0.91,-8.78 -2.94,-11.02l-17.64 -10.18c25.78,-42.04 60.84,-77.67 102.51,-104.02l10.15 17.56c1.51,2.59 4.2,4.04 7,4.04 1.35,0 2.75,-0.35 4.02,-1.08 3.85,-2.24 5.17,-7.16 2.93,-11.01l-10.31 -17.91c42.04,-23.7 89.93,-37.95 140.91,-40.48l0 22.19c0,4.47 3.61,8.05 8.09,8.05 4.44,0 8.05,-3.58 8.05,-8.05l0 -22.97c53.41,0.02 103.74,13.36 148.07,36.6l-7.38 12.76c-2.24,3.85 -0.92,8.78 2.96,11.02 1.27,0.73 2.64,1.08 4.01,1.08 2.8,0 5.5,-1.43 7.01,-4.04l7.4 -12.88c43.71,25.83 80.74,61.57 107.97,104.31l-16.24 9.35c-3.85,2.23 -5.17,7.16 -2.96,11.02 1.51,2.59 4.23,4.01 7,4.01 1.37,0 2.75,-0.33 4.04,-1.05l16.54 -9.56c24.75,43.52 39.46,93.32 41.34,146.4l-22.44 0c-4.44,0 -8.05,3.61 -8.05,8.05 0,4.45 3.61,8.08 8.05,8.08l22.79 0c-0.75,53.76 -14.68,104.39 -38.92,148.69l-21.57 -12.44c-3.85,-2.24 -8.76,-0.92 -10.99,2.93 -2.24,3.85 -0.92,8.8 2.93,11.02l21.25 12.26c-27.28,44.38 -64.94,81.55 -109.72,108.21zm-163.26 -668.22c-216.67,0 -392.92,176.27 -392.92,392.92 0,216.64 176.25,392.91 392.92,392.91 216.64,0 392.89,-176.27 392.89,-392.91 0,-216.65 -176.25,-392.92 -392.89,-392.92z"/>
  <path class="fil0" d="M2746.31 4005.51c-64.99,0 -117.64,52.68 -117.64,117.64 0,64.96 52.65,117.61 117.64,117.61 64.96,0 117.61,-52.65 117.61,-117.61 0,-64.96 -52.65,-117.64 -117.61,-117.64z"/>
  <path class="fil0" d="M2899.31 4265.21l-16.4 -16.45c-3.15,-3.15 -8.24,-3.15 -11.39,0 -3.15,3.15 -3.15,8.24 -0.03,11.39l16.41 16.43c-23.3,21.52 -51.36,37.87 -82.55,47.05l-6.06 -22.73c-1.16,-4.31 -5.57,-6.82 -9.88,-5.69 -4.28,1.13 -6.84,5.55 -5.69,9.86l6.01 22.57c-14,2.99 -28.55,4.63 -43.41,4.63 -17.72,0 -34.85,-2.48 -51.28,-6.63l5.74 -21.41c1.16,-4.28 -1.37,-8.7 -5.69,-9.86 -4.25,-1.13 -8.73,1.4 -9.85,5.68l-5.69 21.06c-29.44,-9.94 -55.91,-26.2 -77.86,-47.27 0.08,-0.06 0.19,-0.08 0.24,-0.13l18.91 -18.85c3.13,-3.15 3.13,-8.24 0,-11.39 -3.15,-3.15 -8.24,-3.15 -11.42,-0.02l-18.83 18.8c-20.55,-22.97 -36.15,-50.42 -44.98,-80.8l23.65 -6.3c4.28,-1.16 6.84,-5.57 5.69,-9.89 -1.13,-4.28 -5.6,-6.84 -9.86,-5.69l-23.48 6.25c-2.88,-13.79 -4.42,-28.07 -4.42,-42.69 0,-16.75 2.18,-32.97 5.9,-48.56l21.36 5.73c0.72,0.19 1.43,0.27 2.13,0.27 3.53,0 6.78,-2.37 7.75,-5.95 1.16,-4.29 -1.37,-8.73 -5.69,-9.89l-21.3 -5.74c9.46,-29.3 25.35,-55.72 45.81,-77.81l14.57 14.6c1.56,1.59 3.63,2.37 5.71,2.37 2.05,0 4.09,-0.78 5.69,-2.37 3.15,-3.12 3.15,-8.24 0.02,-11.39l-14.57 -14.59c22.03,-20.36 48.32,-36.17 77.54,-45.6l5.33 20.01c0.97,3.61 4.2,6.01 7.79,6.01 0.67,0 1.37,-0.11 2.07,-0.3 4.31,-1.13 6.84,-5.55 5.71,-9.85l-5.36 -20.12c15.65,-3.74 31.89,-5.95 48.67,-5.95 14.25,0 28.17,1.48 41.63,4.2l-5.71 21.25c-1.16,4.28 1.4,8.7 5.69,9.85 0.72,0.19 1.43,0.27 2.13,0.27 3.53,0 6.81,-2.34 7.76,-5.95l5.79 -21.44c30.92,8.83 58.82,24.61 82.15,45.54l-11.96 11.93c-3.18,3.15 -3.18,8.24 -0.03,11.39 1.59,1.59 3.64,2.37 5.71,2.37 2.07,0 4.09,-0.78 5.69,-2.34l12.2 -12.17c21.33,22.33 37.78,49.28 47.61,79.29l-19.07 5.09c-4.28,1.13 -6.84,5.55 -5.71,9.85 0.97,3.61 4.22,5.98 7.81,5.98 0.67,0 1.38,-0.08 2.07,-0.27l19.2 -5.12c3.85,15.87 6.14,32.35 6.14,49.4 0,15.21 -1.72,30.06 -4.85,44.35l-21.3 -5.71c-4.31,-1.19 -8.73,1.37 -9.89,5.68 -1.16,4.31 1.37,8.7 5.69,9.89l21.46 5.79c-9.32,31 -25.72,58.9 -47.21,82.06zm-153 -415.67c-150.88,0 -273.61,122.73 -273.61,273.61 0,150.84 122.73,273.6 273.61,273.6 150.84,0 273.58,-122.76 273.58,-273.6 0,-150.88 -122.74,-273.61 -273.58,-273.61z"/>
  <path class="fil4" d="M2716.41 4248.98c1.29,-7.89 -4.36,-2.96 -3.1,-10.51 2.99,-17.67 12.61,-68.3 15.68,-85.94 0.24,-1.54 -0.21,-2.15 -1.46,-2.88 -11.44,-6.74 -17.83,-16.67 -19.07,-29.98 -1.86,-19.58 13.93,-38.38 33.56,-39.83 22.17,-1.64 40.05,13.68 41.02,35.87 0.59,14.14 -5.66,25.26 -17.56,32.96 -1.86,1.22 -2.35,2.16 -1.91,4.36 4.76,23.94 9.59,61.41 14.28,85.37 0.16,0.87 0.29,7.81 0.43,8.87 -20.63,0.27 -41.05,1.43 -61.87,1.7z"/>
 </g>
</svg>
